<svg width="32" height="32" viewBox="0 0 32 32" fill="none" xmlns="http://www.w3.org/2000/svg">
<path fill-rule="evenodd" clip-rule="evenodd" d="M16.7854 31.9803C16.5207 31.9934 16.2542 32 15.9861 32C7.15724 32 0 24.8366 0 16C0 7.16344 7.15724 0 15.9861 0C17.6315 0 19.2188 0.248781 20.7125 0.71081C20.8631 0.868076 21.0113 1.22435 20.3997 1.3913C18.9169 1.41449 15.722 1.85739 14.8046 3.44348C14.3064 4.05797 13.1503 5.53739 12.5109 6.53913C11.7116 7.7913 10.113 9.14783 9.03564 9.66956C8.86188 9.73913 8.52826 9.94783 8.58386 10.2261C8.65337 10.5739 9.55693 13.0087 12.5109 13.0087C13.3218 12.9739 15.3814 12.4452 17.133 10.6087C19.3224 8.31304 22.3111 10.0174 24.1877 11.5826C26.0644 13.1478 31.2272 19.5478 31.3043 20.5913C30.8209 22.2094 30.0885 23.7199 29.1517 25.0783C28.8135 25.3843 28.5512 25.0667 28.4623 24.8696C26.3215 21.8365 22.2648 17.3913 20.504 15.5478C20.1147 15.1861 19.7626 15.3043 19.6351 15.4087C19.4683 15.8261 19.7047 16.1623 19.8437 16.2783C21.5237 17.6484 26.2956 23.6463 27.6009 25.287C27.7537 25.479 27.8589 25.6113 27.9062 25.6696C28.2202 26.0563 28.1723 26.3308 28.0859 26.457C28.0724 26.4727 28.0588 26.4883 28.0452 26.504C27.1902 27.4865 26.2172 28.3636 25.1484 29.113L25.1399 29.119C24.871 29.3021 24.5329 29.0302 24.3962 28.8696C20.6152 26.3809 16.7044 22.1515 15.2216 20.3478C14.888 20.0417 14.5729 20.2203 14.457 20.3478C14.2624 20.6261 14.3759 20.8812 14.457 20.9739C17.9879 25.3148 21.9056 28.3942 23.4232 29.3913C23.868 29.6417 23.7244 29.9507 23.5969 30.0739C22.3447 30.7537 20.9915 31.2709 19.5656 31.5974C14.9436 29.7339 11.6768 25.3217 11.4683 25.0087C11.2598 24.6957 10.9123 24.3478 10.5648 24.6957C10.2867 24.9739 10.4026 25.2754 10.4952 25.3913C12.3302 28.2017 15.5691 30.5739 16.9592 31.4087C17.265 31.7983 16.9708 31.9521 16.7854 31.9803Z" fill="#EE163B"/>
<path fill-rule="evenodd" clip-rule="evenodd" d="M31.8316 18.31C31.9425 17.5503 31.9999 16.7731 31.9999 15.9826C31.9999 10.2948 29.0277 5.30108 24.5513 2.46924C23.8954 2.38819 22.2571 2.22607 20.9506 2.22607C19.6441 2.22607 17.7655 2.68926 16.9895 2.92085C16.6884 3.08296 15.968 3.56004 15.4954 4.17144C15.0229 4.78284 13.7697 6.46418 13.2022 7.22843C12.6578 8.02742 11.2216 9.77825 9.83179 10.3896C10.0287 10.9339 10.8325 12.0085 12.4725 11.9529C14.1125 11.8973 15.7039 10.7023 16.2946 10.1117C16.7695 9.54434 18.1639 8.40955 19.9429 8.40955C20.9969 8.46744 23.8206 9.38223 26.6837 12.5782C29.5468 15.7741 30.7722 17.569 31.027 18.0669C31.1696 18.3332 31.5302 18.7547 31.8316 18.31Z" fill="black"/>
</svg>
